<?xml version="1.0" standalone="no"?>
<!DOCTYPE svg PUBLIC "-//W3C//DTD SVG 20010904//EN"
 "http://www.w3.org/TR/2001/REC-SVG-20010904/DTD/svg10.dtd">
<svg version="1.0" xmlns="http://www.w3.org/2000/svg"
 width="24.000000pt" height="24.000000pt" viewBox="0 0 24.000000 24.000000"
 preserveAspectRatio="xMidYMid meet">

<g transform="translate(0.000000,24.000000) scale(0.100000,-0.100000)"
fill="#808080" stroke="none">
<path d="M126 193 c-16 -54 -36 -157 -31 -161 10 -11 22 14 34 73 7 33 15 70
18 83 6 26 -13 30 -21 5z"/>
<path d="M160 156 c0 -8 8 -19 18 -25 16 -9 16 -11 -3 -25 -29 -21 -11 -32 20
-12 32 21 32 30 -5 56 -24 17 -30 18 -30 6z"/>
<path d="M39 140 l-24 -20 30 -25 c19 -15 31 -20 34 -13 2 6 -4 17 -14 24 -17
13 -17 15 6 33 19 16 20 20 8 21 -9 0 -27 -9 -40 -20z"/>
</g>
</svg>
